<svg xmlns="http://www.w3.org/2000/svg" xmlns:xlink="http://www.w3.org/1999/xlink" width="500" zoomAndPan="magnify" viewBox="0 0 375 374.999991" height="500" preserveAspectRatio="xMidYMid meet" version="1.0"><defs><filter x="0%" y="0%" width="100%" height="100%" id="id1"><feColorMatrix values="0 0 0 0 1 0 0 0 0 1 0 0 0 0 1 0 0 0 1 0" color-interpolation-filters="sRGB"/></filter><g/><clipPath id="id2"><path d="M 143 129 L 198 129 L 198 171 L 143 171 Z M 143 129 " clip-rule="nonzero"/></clipPath><clipPath id="id3"><path d="M 206.632812 141.457031 L 188.433594 185.824219 L 137.378906 164.882812 L 155.578125 120.515625 Z M 206.632812 141.457031 " clip-rule="nonzero"/></clipPath><clipPath id="id4"><path d="M 206.632812 141.457031 L 188.433594 185.824219 L 137.378906 164.882812 L 155.578125 120.515625 Z M 206.632812 141.457031 " clip-rule="nonzero"/></clipPath><clipPath id="id5"><path d="M 145 164 L 189 164 L 189 219 L 145 219 Z M 145 164 " clip-rule="nonzero"/></clipPath><clipPath id="id6"><path d="M 160.433594 154.726562 L 203.289062 176.242188 L 178.53125 225.558594 L 135.675781 204.042969 Z M 160.433594 154.726562 " clip-rule="nonzero"/></clipPath><clipPath id="id7"><path d="M 160.433594 154.726562 L 203.289062 176.242188 L 178.53125 225.558594 L 135.675781 204.042969 Z M 160.433594 154.726562 " clip-rule="nonzero"/></clipPath><clipPath id="id8"><path d="M 190 128 L 234 128 L 234 184 L 190 184 Z M 190 128 " clip-rule="nonzero"/></clipPath><clipPath id="id9"><path d="M 218.546875 192.585938 L 175.269531 171.925781 L 199.042969 122.128906 L 242.320312 142.789062 Z M 218.546875 192.585938 " clip-rule="nonzero"/></clipPath><clipPath id="id10"><path d="M 218.546875 192.585938 L 175.269531 171.925781 L 199.042969 122.128906 L 242.320312 142.789062 Z M 218.546875 192.585938 " clip-rule="nonzero"/></clipPath><clipPath id="id11"><path d="M 180 179 L 235 179 L 235 220 L 180 220 Z M 180 179 " clip-rule="nonzero"/></clipPath><clipPath id="id12"><path d="M 172.542969 209.066406 L 188.832031 163.964844 L 240.730469 182.707031 L 224.441406 227.8125 Z M 172.542969 209.066406 " clip-rule="nonzero"/></clipPath><clipPath id="id13"><path d="M 172.542969 209.066406 L 188.832031 163.964844 L 240.730469 182.707031 L 224.441406 227.8125 Z M 172.542969 209.066406 " clip-rule="nonzero"/></clipPath><clipPath id="id14"><path d="M 175 161 L 192 161 L 192 178 L 175 178 Z M 175 161 " clip-rule="nonzero"/></clipPath><clipPath id="id15"><path d="M 192.175781 177.285156 L 175.890625 175.183594 L 177.90625 159.546875 L 194.191406 161.648438 Z M 192.175781 177.285156 " clip-rule="nonzero"/></clipPath><clipPath id="id16"><path d="M 191.472656 182.761719 L 170.621094 180.074219 L 173.3125 159.226562 L 194.160156 161.914062 Z M 191.472656 182.761719 " clip-rule="nonzero"/></clipPath><clipPath id="id17"><path d="M 188 170 L 202 170 L 202 186 L 188 186 Z M 188 170 " clip-rule="nonzero"/></clipPath><clipPath id="id18"><path d="M 187.757812 170.644531 L 201.972656 173.265625 L 199.351562 187.476562 L 185.140625 184.859375 Z M 187.757812 170.644531 " clip-rule="nonzero"/></clipPath><clipPath id="id19"><path d="M 188.667969 165.71875 L 207.402344 169.171875 L 203.949219 187.90625 L 185.214844 184.453125 Z M 188.667969 165.71875 " clip-rule="nonzero"/></clipPath><clipPath id="id20"><path d="M 177 177 L 190 177 L 190 189 L 177 189 Z M 177 177 " clip-rule="nonzero"/></clipPath><clipPath id="id21"><path d="M 189.132812 176.613281 L 188.515625 188.421875 L 177.363281 187.839844 L 177.980469 176.03125 Z M 189.132812 176.613281 " clip-rule="nonzero"/></clipPath><clipPath id="id22"><path d="M 193.175781 176.824219 L 192.355469 192.570312 L 176.609375 191.746094 L 177.433594 176.003906 Z M 193.175781 176.824219 " clip-rule="nonzero"/></clipPath><clipPath id="id23"><path d="M 189 160 L 201 160 L 201 173 L 189 173 Z M 189 160 " clip-rule="nonzero"/></clipPath><clipPath id="id24"><path d="M 189.140625 172.789062 L 189.925781 160.988281 L 201.070312 161.730469 L 200.285156 173.527344 Z M 189.140625 172.789062 " clip-rule="nonzero"/></clipPath><clipPath id="id25"><path d="M 185.101562 172.519531 L 186.148438 156.789062 L 201.878906 157.835938 L 200.832031 173.566406 Z M 185.101562 172.519531 " clip-rule="nonzero"/></clipPath><mask id="id26"><g filter="url(#id1)"><rect x="-37.5" width="450" fill="#000000" y="-37.499999" height="449.999989" fill-opacity="0.298"/></g></mask><clipPath id="id27"><path d="M 8 11 L 63 11 L 63 53 L 8 53 Z M 8 11 " clip-rule="nonzero"/></clipPath><clipPath id="id28"><path d="M 71.632812 23.457031 L 53.433594 67.824219 L 2.378906 46.882812 L 20.578125 2.515625 Z M 71.632812 23.457031 " clip-rule="nonzero"/></clipPath><clipPath id="id29"><path d="M 71.632812 23.457031 L 53.433594 67.824219 L 2.378906 46.882812 L 20.578125 2.515625 Z M 71.632812 23.457031 " clip-rule="nonzero"/></clipPath><clipPath id="id30"><rect x="0" width="74" y="0" height="71"/></clipPath><mask id="id31"><g filter="url(#id1)"><rect x="-37.5" width="450" fill="#000000" y="-37.499999" height="449.999989" fill-opacity="0.2471"/></g></mask><clipPath id="id32"><path d="M 12 12 L 56 12 L 56 67 L 12 67 Z M 12 12 " clip-rule="nonzero"/></clipPath><clipPath id="id33"><path d="M 27.433594 2.726562 L 70.289062 24.242188 L 45.53125 73.558594 L 2.675781 52.042969 Z M 27.433594 2.726562 " clip-rule="nonzero"/></clipPath><clipPath id="id34"><path d="M 27.433594 2.726562 L 70.289062 24.242188 L 45.53125 73.558594 L 2.675781 52.042969 Z M 27.433594 2.726562 " clip-rule="nonzero"/></clipPath><clipPath id="id35"><rect x="0" width="73" y="0" height="76"/></clipPath><mask id="id36"><g filter="url(#id1)"><rect x="-37.5" width="450" fill="#000000" y="-37.499999" height="449.999989" fill-opacity="0.2471"/></g></mask><clipPath id="id37"><path d="M 18 8 L 62 8 L 62 64 L 18 64 Z M 18 8 " clip-rule="nonzero"/></clipPath><clipPath id="id38"><path d="M 46.546875 72.585938 L 3.269531 51.925781 L 27.042969 2.128906 L 70.320312 22.789062 Z M 46.546875 72.585938 " clip-rule="nonzero"/></clipPath><clipPath id="id39"><path d="M 46.546875 72.585938 L 3.269531 51.925781 L 27.042969 2.128906 L 70.320312 22.789062 Z M 46.546875 72.585938 " clip-rule="nonzero"/></clipPath><clipPath id="id40"><rect x="0" width="73" y="0" height="75"/></clipPath><mask id="id41"><g filter="url(#id1)"><rect x="-37.5" width="450" fill="#000000" y="-37.499999" height="449.999989" fill-opacity="0.298"/></g></mask><clipPath id="id42"><path d="M 10 18 L 65 18 L 65 59 L 10 59 Z M 10 18 " clip-rule="nonzero"/></clipPath><clipPath id="id43"><path d="M 2.542969 48.066406 L 18.832031 2.964844 L 70.730469 21.707031 L 54.441406 66.8125 Z M 2.542969 48.066406 " clip-rule="nonzero"/></clipPath><clipPath id="id44"><path d="M 2.542969 48.066406 L 18.832031 2.964844 L 70.730469 21.707031 L 54.441406 66.8125 Z M 2.542969 48.066406 " clip-rule="nonzero"/></clipPath><clipPath id="id45"><rect x="0" width="73" y="0" height="70"/></clipPath><clipPath id="id46"><path d="M 175 161 L 192 161 L 192 178 L 175 178 Z M 175 161 " clip-rule="nonzero"/></clipPath><clipPath id="id47"><path d="M 192.175781 177.285156 L 175.890625 175.183594 L 177.90625 159.546875 L 194.191406 161.648438 Z M 192.175781 177.285156 " clip-rule="nonzero"/></clipPath><clipPath id="id48"><path d="M 191.472656 182.761719 L 170.621094 180.074219 L 173.3125 159.226562 L 194.160156 161.914062 Z M 191.472656 182.761719 " clip-rule="nonzero"/></clipPath><clipPath id="id49"><path d="M 188 170 L 202 170 L 202 186 L 188 186 Z M 188 170 " clip-rule="nonzero"/></clipPath><clipPath id="id50"><path d="M 187.757812 170.644531 L 201.972656 173.265625 L 199.351562 187.476562 L 185.140625 184.859375 Z M 187.757812 170.644531 " clip-rule="nonzero"/></clipPath><clipPath id="id51"><path d="M 188.667969 165.71875 L 207.402344 169.171875 L 203.949219 187.90625 L 185.214844 184.453125 Z M 188.667969 165.71875 " clip-rule="nonzero"/></clipPath><clipPath id="id52"><path d="M 177 177 L 190 177 L 190 189 L 177 189 Z M 177 177 " clip-rule="nonzero"/></clipPath><clipPath id="id53"><path d="M 189.132812 176.613281 L 188.515625 188.421875 L 177.363281 187.839844 L 177.980469 176.03125 Z M 189.132812 176.613281 " clip-rule="nonzero"/></clipPath><clipPath id="id54"><path d="M 193.175781 176.824219 L 192.355469 192.570312 L 176.609375 191.746094 L 177.433594 176.003906 Z M 193.175781 176.824219 " clip-rule="nonzero"/></clipPath><clipPath id="id55"><path d="M 189 160 L 201 160 L 201 173 L 189 173 Z M 189 160 " clip-rule="nonzero"/></clipPath><clipPath id="id56"><path d="M 189.140625 172.789062 L 189.925781 160.988281 L 201.070312 161.730469 L 200.285156 173.527344 Z M 189.140625 172.789062 " clip-rule="nonzero"/></clipPath><clipPath id="id57"><path d="M 185.101562 172.519531 L 186.148438 156.789062 L 201.878906 157.835938 L 200.832031 173.566406 Z M 185.101562 172.519531 " clip-rule="nonzero"/></clipPath><mask id="id58"><g filter="url(#id1)"><rect x="-37.5" width="450" fill="#000000" y="-37.499999" height="449.999989" fill-opacity="0.4"/></g></mask><clipPath id="id59"><path d="M 0.160156 4 L 31 4 L 31 34 L 0.160156 34 Z M 0.160156 4 " clip-rule="nonzero"/></clipPath><clipPath id="id60"><rect x="0" width="178" y="0" height="43"/></clipPath><mask id="id61"><g filter="url(#id1)"><rect x="-37.5" width="450" fill="#000000" y="-37.499999" height="449.999989" fill-opacity="0.3686"/></g></mask><clipPath id="id62"><rect x="0" width="169" y="0" height="16"/></clipPath></defs><g clip-path="url(#id2)"><g clip-path="url(#id3)"><g clip-path="url(#id4)"><path fill="#1478f5" d="M 147.59375 168.914062 C 148.027344 168.929688 148.4375 168.699219 148.65625 168.320312 C 154.820312 157.679688 168.050781 153.175781 179.433594 157.84375 C 184.949219 160.105469 189.464844 164.304688 192.148438 169.65625 C 192.34375 170.046875 192.738281 170.300781 193.175781 170.3125 C 193.609375 170.328125 194.019531 170.097656 194.238281 169.726562 C 194.921875 168.546875 195.464844 167.46875 195.890625 166.421875 C 201.5625 152.59375 194.917969 136.730469 181.078125 131.054688 C 167.234375 125.375 151.363281 132.007812 145.691406 145.832031 C 142.730469 153.058594 143.050781 161.230469 146.566406 168.253906 C 146.765625 168.648438 147.160156 168.898438 147.59375 168.914062 Z M 147.59375 168.914062 " fill-opacity="1" fill-rule="nonzero"/></g></g></g><g clip-path="url(#id5)"><g clip-path="url(#id6)"><g clip-path="url(#id7)"><path fill="#0fb95a" d="M 183.328125 215.679688 C 183.378906 215.246094 183.179688 214.820312 182.816406 214.578125 C 172.675781 207.621094 169.191406 194.085938 174.710938 183.089844 C 177.386719 177.765625 181.914062 173.582031 187.453125 171.3125 C 187.855469 171.144531 188.140625 170.773438 188.183594 170.335938 C 188.234375 169.90625 188.035156 169.480469 187.679688 169.234375 C 186.558594 168.460938 185.523438 167.839844 184.511719 167.332031 C 171.15625 160.625 154.832031 166.050781 148.121094 179.417969 C 141.410156 192.789062 146.8125 209.117188 160.167969 215.824219 C 167.148438 219.324219 175.324219 219.628906 182.59375 216.65625 C 183 216.484375 183.28125 216.113281 183.328125 215.679688 Z M 183.328125 215.679688 " fill-opacity="1" fill-rule="nonzero"/></g></g></g><g clip-path="url(#id8)"><g clip-path="url(#id9)"><g clip-path="url(#id10)"><path fill="#0fb95a" d="M 194.445312 132.101562 C 194.40625 132.53125 194.609375 132.957031 194.980469 133.191406 C 205.257812 139.945312 209.011719 153.40625 203.710938 164.511719 C 201.140625 169.890625 196.699219 174.160156 191.203125 176.542969 C 190.804688 176.71875 190.527344 177.09375 190.492188 177.53125 C 190.449219 177.964844 190.65625 178.386719 191.015625 178.621094 C 192.15625 179.371094 193.203125 179.972656 194.222656 180.460938 C 207.710938 186.898438 223.921875 181.152344 230.367188 167.652344 C 236.8125 154.152344 231.082031 137.933594 217.597656 131.496094 C 210.550781 128.132812 202.371094 127.992188 195.160156 131.109375 C 194.757812 131.289062 194.484375 131.664062 194.445312 132.101562 Z M 194.445312 132.101562 " fill-opacity="1" fill-rule="nonzero"/></g></g></g><g clip-path="url(#id11)"><g clip-path="url(#id12)"><g clip-path="url(#id13)"><path fill="#1478f5" d="M 230.355469 179.117188 C 229.917969 179.117188 229.519531 179.363281 229.320312 179.753906 C 223.613281 190.648438 210.589844 195.710938 199.015625 191.53125 C 193.410156 189.507812 188.71875 185.507812 185.808594 180.273438 C 185.59375 179.894531 185.191406 179.65625 184.753906 179.664062 C 184.320312 179.664062 183.921875 179.914062 183.71875 180.292969 C 183.085938 181.5 182.589844 182.601562 182.207031 183.664062 C 177.128906 197.722656 184.445312 213.289062 198.515625 218.371094 C 212.585938 223.449219 228.160156 216.148438 233.238281 202.09375 C 235.890625 194.75 235.222656 186.597656 231.410156 179.730469 C 231.191406 179.347656 230.789062 179.113281 230.355469 179.117188 Z M 230.355469 179.117188 " fill-opacity="1" fill-rule="nonzero"/></g></g></g><g clip-path="url(#id14)"><g clip-path="url(#id15)"><g clip-path="url(#id16)"><path fill="#ffffff" d="M 187.109375 181.695312 C 187.03125 182.007812 187.402344 182.238281 187.636719 182.019531 C 192.105469 177.847656 192.75 170.875 188.941406 165.9375 C 185.132812 161.003906 178.222656 159.855469 173.058594 163.125 C 172.785156 163.296875 172.914062 163.710938 173.234375 163.714844 C 176.886719 163.734375 181.261719 165.789062 184.199219 169.597656 C 187.136719 173.40625 188.015625 178.160156 187.109375 181.695312 Z M 187.109375 181.695312 " fill-opacity="1" fill-rule="evenodd"/></g></g></g><g clip-path="url(#id17)"><g clip-path="url(#id18)"><g clip-path="url(#id19)"><path fill="#ffffff" d="M 192.5625 166.894531 C 192.648438 166.617188 192.324219 166.394531 192.101562 166.578125 C 187.851562 170.132812 186.925781 176.414062 190.132812 181.066406 C 193.335938 185.71875 199.535156 187.097656 204.367188 184.390625 C 204.621094 184.25 204.527344 183.867188 204.238281 183.851562 C 200.933594 183.652344 197.078125 181.578125 194.605469 177.988281 C 192.132812 174.394531 191.570312 170.054688 192.5625 166.894531 Z M 192.5625 166.894531 " fill-opacity="1" fill-rule="evenodd"/></g></g></g><g clip-path="url(#id20)"><g clip-path="url(#id21)"><g clip-path="url(#id22)"><path fill="#ffffff" d="M 192.628906 180.148438 C 192.863281 180.1875 193.015625 179.898438 192.839844 179.738281 C 189.464844 176.628906 184.214844 176.546875 180.738281 179.675781 C 177.265625 182.804688 176.800781 188.039062 179.539062 191.714844 C 179.683594 191.910156 179.988281 191.789062 179.96875 191.550781 C 179.777344 188.816406 181.066406 185.429688 183.746094 183.015625 C 186.425781 180.601562 189.929688 179.671875 192.628906 180.148438 Z M 192.628906 180.148438 " fill-opacity="1" fill-rule="evenodd"/></g></g></g><g clip-path="url(#id23)"><g clip-path="url(#id24)"><g clip-path="url(#id25)"><path fill="#ffffff" d="M 185.699219 169.207031 C 185.460938 169.160156 185.308594 169.449219 185.480469 169.613281 C 188.808594 172.769531 194.058594 172.925781 197.578125 169.847656 C 201.097656 166.765625 201.636719 161.542969 198.949219 157.824219 C 198.808594 157.628906 198.503906 157.746094 198.515625 157.984375 C 198.667969 160.71875 197.332031 164.089844 194.617188 166.464844 C 191.902344 168.839844 188.386719 169.71875 185.699219 169.207031 Z M 185.699219 169.207031 " fill-opacity="1" fill-rule="evenodd"/></g></g></g><g mask="url(#id26)"><g transform="matrix(1, 0, 0, 1, 135, 118)"><g clip-path="url(#id30)"><g clip-path="url(#id27)"><g clip-path="url(#id28)"><g clip-path="url(#id29)"><path fill="#0fb95a" d="M 12.59375 50.914062 C 13.027344 50.929688 13.4375 50.699219 13.65625 50.320312 C 19.820312 39.679688 33.050781 35.175781 44.433594 39.84375 C 49.949219 42.105469 54.464844 46.304688 57.148438 51.65625 C 57.34375 52.046875 57.738281 52.300781 58.175781 52.3125 C 58.609375 52.328125 59.019531 52.097656 59.238281 51.726562 C 59.921875 50.546875 60.464844 49.46875 60.890625 48.421875 C 66.5625 34.59375 59.917969 18.730469 46.078125 13.054688 C 32.234375 7.375 16.363281 14.007812 10.691406 27.832031 C 7.730469 35.058594 8.050781 43.230469 11.566406 50.253906 C 11.765625 50.648438 12.160156 50.898438 12.59375 50.914062 Z M 12.59375 50.914062 " fill-opacity="1" fill-rule="nonzero"/></g></g></g></g></g></g><g mask="url(#id31)"><g transform="matrix(1, 0, 0, 1, 133, 152)"><g clip-path="url(#id35)"><g clip-path="url(#id32)"><g clip-path="url(#id33)"><g clip-path="url(#id34)"><path fill="#1478f5" d="M 50.328125 63.679688 C 50.378906 63.246094 50.179688 62.820312 49.816406 62.578125 C 39.675781 55.621094 36.191406 42.085938 41.710938 31.089844 C 44.386719 25.765625 48.914062 21.582031 54.453125 19.3125 C 54.855469 19.144531 55.140625 18.773438 55.183594 18.335938 C 55.234375 17.90625 55.035156 17.480469 54.679688 17.234375 C 53.558594 16.460938 52.523438 15.839844 51.511719 15.332031 C 38.15625 8.625 21.832031 14.050781 15.121094 27.417969 C 8.410156 40.789062 13.8125 57.117188 27.167969 63.824219 C 34.148438 67.324219 42.324219 67.628906 49.59375 64.65625 C 50 64.484375 50.28125 64.113281 50.328125 63.679688 Z M 50.328125 63.679688 " fill-opacity="1" fill-rule="nonzero"/></g></g></g></g></g></g><g mask="url(#id36)"><g transform="matrix(1, 0, 0, 1, 172, 120)"><g clip-path="url(#id40)"><g clip-path="url(#id37)"><g clip-path="url(#id38)"><g clip-path="url(#id39)"><path fill="#1478f5" d="M 22.445312 12.101562 C 22.40625 12.53125 22.609375 12.957031 22.980469 13.191406 C 33.257812 19.945312 37.011719 33.40625 31.710938 44.511719 C 29.140625 49.890625 24.699219 54.160156 19.203125 56.542969 C 18.804688 56.71875 18.527344 57.09375 18.492188 57.53125 C 18.449219 57.964844 18.65625 58.386719 19.015625 58.621094 C 20.15625 59.371094 21.203125 59.972656 22.222656 60.460938 C 35.710938 66.898438 51.921875 61.152344 58.367188 47.652344 C 64.8125 34.152344 59.082031 17.933594 45.597656 11.496094 C 38.550781 8.132812 30.371094 7.992188 23.160156 11.109375 C 22.757812 11.289062 22.484375 11.664062 22.445312 12.101562 Z M 22.445312 12.101562 " fill-opacity="1" fill-rule="nonzero"/></g></g></g></g></g></g><g mask="url(#id41)"><g transform="matrix(1, 0, 0, 1, 170, 161)"><g clip-path="url(#id45)"><g clip-path="url(#id42)"><g clip-path="url(#id43)"><g clip-path="url(#id44)"><path fill="#0fb95a" d="M 60.355469 18.117188 C 59.917969 18.117188 59.519531 18.363281 59.320312 18.753906 C 53.613281 29.648438 40.589844 34.710938 29.015625 30.53125 C 23.410156 28.507812 18.71875 24.507812 15.808594 19.273438 C 15.59375 18.894531 15.191406 18.65625 14.753906 18.664062 C 14.320312 18.664062 13.921875 18.914062 13.71875 19.292969 C 13.085938 20.5 12.589844 21.601562 12.207031 22.664062 C 7.128906 36.722656 14.445312 52.289062 28.515625 57.371094 C 42.585938 62.449219 58.160156 55.148438 63.238281 41.09375 C 65.890625 33.75 65.222656 25.597656 61.410156 18.730469 C 61.191406 18.347656 60.789062 18.113281 60.355469 18.117188 Z M 60.355469 18.117188 " fill-opacity="1" fill-rule="nonzero"/></g></g></g></g></g></g><g clip-path="url(#id46)"><g clip-path="url(#id47)"><g clip-path="url(#id48)"><path fill="#ffffff" d="M 187.109375 181.695312 C 187.03125 182.007812 187.402344 182.238281 187.636719 182.019531 C 192.105469 177.847656 192.75 170.875 188.941406 165.9375 C 185.132812 161.003906 178.222656 159.855469 173.058594 163.125 C 172.785156 163.296875 172.914062 163.710938 173.234375 163.714844 C 176.886719 163.734375 181.261719 165.789062 184.199219 169.597656 C 187.136719 173.40625 188.015625 178.160156 187.109375 181.695312 Z M 187.109375 181.695312 " fill-opacity="1" fill-rule="evenodd"/></g></g></g><g clip-path="url(#id49)"><g clip-path="url(#id50)"><g clip-path="url(#id51)"><path fill="#ffffff" d="M 192.5625 166.894531 C 192.648438 166.617188 192.324219 166.394531 192.101562 166.578125 C 187.851562 170.132812 186.925781 176.414062 190.132812 181.066406 C 193.335938 185.71875 199.535156 187.097656 204.367188 184.390625 C 204.621094 184.25 204.527344 183.867188 204.238281 183.851562 C 200.933594 183.652344 197.078125 181.578125 194.605469 177.988281 C 192.132812 174.394531 191.570312 170.054688 192.5625 166.894531 Z M 192.5625 166.894531 " fill-opacity="1" fill-rule="evenodd"/></g></g></g><g clip-path="url(#id52)"><g clip-path="url(#id53)"><g clip-path="url(#id54)"><path fill="#ffffff" d="M 192.628906 180.148438 C 192.863281 180.1875 193.015625 179.898438 192.839844 179.738281 C 189.464844 176.628906 184.214844 176.546875 180.738281 179.675781 C 177.265625 182.804688 176.800781 188.039062 179.539062 191.714844 C 179.683594 191.910156 179.988281 191.789062 179.96875 191.550781 C 179.777344 188.816406 181.066406 185.429688 183.746094 183.015625 C 186.425781 180.601562 189.929688 179.671875 192.628906 180.148438 Z M 192.628906 180.148438 " fill-opacity="1" fill-rule="evenodd"/></g></g></g><g clip-path="url(#id55)"><g clip-path="url(#id56)"><g clip-path="url(#id57)"><path fill="#ffffff" d="M 185.699219 169.207031 C 185.460938 169.160156 185.308594 169.449219 185.480469 169.613281 C 188.808594 172.769531 194.058594 172.925781 197.578125 169.847656 C 201.097656 166.765625 201.636719 161.542969 198.949219 157.824219 C 198.808594 157.628906 198.503906 157.746094 198.515625 157.984375 C 198.667969 160.71875 197.332031 164.089844 194.617188 166.464844 C 191.902344 168.839844 188.386719 169.71875 185.699219 169.207031 Z M 185.699219 169.207031 " fill-opacity="1" fill-rule="evenodd"/></g></g></g><g fill="#1478f5" fill-opacity="1"><g transform="translate(104.367185, 261.855525)"><g><path d="M 5.25 0 L 0.46875 0 L 12.859375 -29.78125 L 17.6875 -29.78125 L 30.078125 0 L 25.328125 0 L 21.421875 -9.328125 L 9.109375 -9.328125 Z M 10.796875 -13.359375 L 19.734375 -13.359375 L 15.28125 -24.109375 Z M 10.796875 -13.359375 "/></g></g></g><g fill="#0fb95a" fill-opacity="1"><g transform="translate(135.093746, 261.855525)"><g><path d="M 22.21875 -8.359375 C 22.21875 -7.097656 21.960938 -5.925781 21.453125 -4.84375 C 20.953125 -3.769531 20.210938 -2.828125 19.234375 -2.015625 C 17.304688 -0.390625 14.828125 0.421875 11.796875 0.421875 C 9.453125 0.421875 7.328125 -0.0625 5.421875 -1.03125 C 3.515625 -2 2.113281 -3.289062 1.21875 -4.90625 L 4.953125 -6.84375 C 5.515625 -5.832031 6.40625 -5.054688 7.625 -4.515625 C 8.84375 -3.972656 10.234375 -3.703125 11.796875 -3.703125 C 15.859375 -3.703125 17.890625 -5.253906 17.890625 -8.359375 C 17.890625 -8.941406 17.785156 -9.441406 17.578125 -9.859375 C 17.367188 -10.285156 17.050781 -10.679688 16.625 -11.046875 C 15.625 -11.890625 13.820312 -12.644531 11.21875 -13.3125 C 9.644531 -13.707031 8.3125 -14.140625 7.21875 -14.609375 C 6.132812 -15.085938 5.226562 -15.648438 4.5 -16.296875 C 2.726562 -17.722656 1.84375 -19.613281 1.84375 -21.96875 C 1.84375 -23.144531 2.070312 -24.242188 2.53125 -25.265625 C 3 -26.285156 3.65625 -27.175781 4.5 -27.9375 C 5.363281 -28.6875 6.375 -29.25 7.53125 -29.625 C 8.695312 -30.007812 9.976562 -30.203125 11.375 -30.203125 C 13.425781 -30.203125 15.3125 -29.804688 17.03125 -29.015625 C 18.75 -28.234375 20.054688 -27.128906 20.953125 -25.703125 L 17.5625 -23.609375 C 16.75 -24.585938 15.804688 -25.28125 14.734375 -25.6875 C 13.671875 -26.09375 12.550781 -26.296875 11.375 -26.296875 C 10.539062 -26.296875 9.769531 -26.15625 9.0625 -25.875 C 8.363281 -25.59375 7.78125 -25.253906 7.3125 -24.859375 C 6.914062 -24.523438 6.625 -24.113281 6.4375 -23.625 C 6.257812 -23.132812 6.171875 -22.609375 6.171875 -22.046875 C 6.171875 -21.679688 6.226562 -21.3125 6.34375 -20.9375 C 6.457031 -20.5625 6.722656 -20.171875 7.140625 -19.765625 C 7.554688 -19.359375 8.171875 -18.960938 8.984375 -18.578125 C 9.796875 -18.203125 10.90625 -17.832031 12.3125 -17.46875 C 13.988281 -17.050781 15.398438 -16.597656 16.546875 -16.109375 C 17.691406 -15.617188 18.660156 -15.035156 19.453125 -14.359375 C 21.296875 -12.847656 22.21875 -10.847656 22.21875 -8.359375 Z M 22.21875 -8.359375 "/></g></g></g><g fill="#1478f5" fill-opacity="1"><g transform="translate(159.445307, 261.855525)"><g><path d="M 5.25 0 L 0.46875 0 L 12.859375 -29.78125 L 17.6875 -29.78125 L 30.078125 0 L 25.328125 0 L 21.421875 -9.328125 L 9.109375 -9.328125 Z M 10.796875 -13.359375 L 19.734375 -13.359375 L 15.28125 -24.109375 Z M 10.796875 -13.359375 "/></g></g></g><g fill="#0fb95a" fill-opacity="1"><g transform="translate(190.171867, 261.855525)"><g><path d="M 28.015625 -29.78125 L 28.015625 0 L 23.5625 0 L 6.9375 -22.84375 L 6.9375 0 L 2.359375 0 L 2.359375 -29.78125 L 6.96875 -29.78125 L 23.609375 -6.796875 L 23.609375 -29.78125 Z M 28.015625 -29.78125 "/></g></g></g><g fill="#1478f5" fill-opacity="1"><g transform="translate(220.605459, 261.855525)"><g><path d="M 18.984375 -15.921875 L 27.09375 -15.921875 L 27.09375 -5 C 25.75 -3.40625 24.125 -2.101562 22.21875 -1.09375 C 20.3125 -0.0820312 18.238281 0.421875 16 0.421875 C 13.988281 0.421875 12.085938 0.015625 10.296875 -0.796875 C 8.503906 -1.609375 6.945312 -2.707031 5.625 -4.09375 C 4.3125 -5.476562 3.269531 -7.09375 2.5 -8.9375 C 1.726562 -10.789062 1.34375 -12.769531 1.34375 -14.875 C 1.34375 -16.9375 1.726562 -18.898438 2.5 -20.765625 C 3.269531 -22.628906 4.3125 -24.253906 5.625 -25.640625 C 6.945312 -27.023438 8.503906 -28.125 10.296875 -28.9375 C 12.085938 -29.75 13.988281 -30.15625 16 -30.15625 C 17.851562 -30.15625 19.601562 -29.789062 21.25 -29.0625 C 22.90625 -28.332031 24.390625 -27.378906 25.703125 -26.203125 L 23.09375 -22.890625 C 22.175781 -23.867188 21.109375 -24.660156 19.890625 -25.265625 C 18.671875 -25.867188 17.375 -26.171875 16 -26.171875 C 14.570312 -26.171875 13.234375 -25.867188 11.984375 -25.265625 C 10.742188 -24.660156 9.660156 -23.835938 8.734375 -22.796875 C 7.804688 -21.765625 7.078125 -20.566406 6.546875 -19.203125 C 6.015625 -17.847656 5.75 -16.40625 5.75 -14.875 C 5.75 -13.332031 6.015625 -11.878906 6.546875 -10.515625 C 7.078125 -9.160156 7.804688 -7.972656 8.734375 -6.953125 C 9.660156 -5.929688 10.742188 -5.125 11.984375 -4.53125 C 13.234375 -3.945312 14.570312 -3.65625 16 -3.65625 C 17.3125 -3.65625 18.539062 -3.910156 19.6875 -4.421875 C 20.84375 -4.941406 21.867188 -5.640625 22.765625 -6.515625 L 22.765625 -11.84375 L 18.984375 -11.84375 Z M 18.984375 -15.921875 "/></g></g></g><g fill="#0fb95a" fill-opacity="1"><g transform="translate(250.406238, 261.855525)"><g><path d="M 5.25 0 L 0.46875 0 L 12.859375 -29.78125 L 17.6875 -29.78125 L 30.078125 0 L 25.328125 0 L 21.421875 -9.328125 L 9.109375 -9.328125 Z M 10.796875 -13.359375 L 19.734375 -13.359375 L 15.28125 -24.109375 Z M 10.796875 -13.359375 "/></g></g></g><g fill="#004aad" fill-opacity="1"><g transform="translate(110.550049, 279.40545)"><g><path d="M 8.375 -2.96875 C 8.375 -2.5625 8.296875 -2.175781 8.140625 -1.8125 C 7.984375 -1.457031 7.769531 -1.144531 7.5 -0.875 C 7.226562 -0.601562 6.910156 -0.390625 6.546875 -0.234375 C 6.179688 -0.078125 5.796875 0 5.390625 0 L 0.84375 0 L 0.84375 -10.640625 L 5 -10.640625 C 5.351562 -10.640625 5.691406 -10.566406 6.015625 -10.421875 C 6.335938 -10.285156 6.617188 -10.097656 6.859375 -9.859375 C 7.097656 -9.617188 7.285156 -9.332031 7.421875 -9 C 7.566406 -8.675781 7.640625 -8.332031 7.640625 -7.96875 C 7.640625 -7.507812 7.5625 -7.09375 7.40625 -6.71875 C 7.257812 -6.34375 7.015625 -6.023438 6.671875 -5.765625 C 7.242188 -5.546875 7.671875 -5.1875 7.953125 -4.6875 C 8.234375 -4.1875 8.375 -3.613281 8.375 -2.96875 Z M 2.40625 -6.328125 C 2.800781 -6.316406 3.171875 -6.3125 3.515625 -6.3125 L 5.015625 -6.3125 C 5.390625 -6.3125 5.707031 -6.453125 5.96875 -6.734375 C 6.226562 -7.023438 6.359375 -7.367188 6.359375 -7.765625 C 6.359375 -8.179688 6.226562 -8.523438 5.96875 -8.796875 C 5.707031 -9.078125 5.390625 -9.21875 5.015625 -9.21875 L 2.40625 -9.21875 Z M 2.40625 -1.453125 C 2.46875 -1.441406 2.617188 -1.4375 2.859375 -1.4375 L 5.390625 -1.4375 C 5.597656 -1.4375 5.789062 -1.476562 5.96875 -1.5625 C 6.15625 -1.65625 6.316406 -1.78125 6.453125 -1.9375 C 6.597656 -2.09375 6.710938 -2.273438 6.796875 -2.484375 C 6.878906 -2.703125 6.921875 -2.929688 6.921875 -3.171875 C 6.921875 -3.410156 6.878906 -3.628906 6.796875 -3.828125 C 6.710938 -4.035156 6.597656 -4.21875 6.453125 -4.375 C 6.316406 -4.53125 6.15625 -4.648438 5.96875 -4.734375 C 5.789062 -4.828125 5.597656 -4.875 5.390625 -4.875 L 2.40625 -4.875 Z M 2.40625 -1.453125 "/></g></g></g><g fill="#004aad" fill-opacity="1"><g transform="translate(122.400151, 279.40545)"><g><path d="M 8.65625 -3.765625 C 8.65625 -3.222656 8.550781 -2.710938 8.34375 -2.234375 C 8.144531 -1.765625 7.867188 -1.351562 7.515625 -1 C 7.160156 -0.644531 6.75 -0.363281 6.28125 -0.15625 C 5.8125 0.0507812 5.304688 0.15625 4.765625 0.15625 C 4.222656 0.15625 3.71875 0.0507812 3.25 -0.15625 C 2.78125 -0.363281 2.367188 -0.644531 2.015625 -1 C 1.671875 -1.351562 1.394531 -1.765625 1.1875 -2.234375 C 0.988281 -2.710938 0.890625 -3.222656 0.890625 -3.765625 L 0.890625 -10.640625 L 2.4375 -10.640625 L 2.4375 -3.765625 C 2.4375 -3.441406 2.5 -3.132812 2.625 -2.84375 C 2.75 -2.5625 2.914062 -2.304688 3.125 -2.078125 C 3.332031 -1.847656 3.578125 -1.664062 3.859375 -1.53125 C 4.148438 -1.40625 4.453125 -1.34375 4.765625 -1.34375 C 5.085938 -1.34375 5.390625 -1.40625 5.671875 -1.53125 C 5.953125 -1.664062 6.195312 -1.847656 6.40625 -2.078125 C 6.613281 -2.304688 6.773438 -2.5625 6.890625 -2.84375 C 7.015625 -3.132812 7.078125 -3.441406 7.078125 -3.765625 L 7.078125 -10.640625 L 8.65625 -10.640625 Z M 8.65625 -3.765625 "/></g></g></g><g fill="#004aad" fill-opacity="1"><g transform="translate(134.760258, 279.40545)"><g><path d="M 3.71875 -9.34375 L 3.71875 -1.296875 L 4.5 -1.296875 L 4.5 0 L 1.359375 0 L 1.359375 -1.296875 L 2.15625 -1.296875 L 2.15625 -9.34375 L 1.359375 -9.34375 L 1.359375 -10.640625 L 4.5 -10.640625 L 4.5 -9.34375 Z M 3.71875 -9.34375 "/></g></g></g><g fill="#004aad" fill-opacity="1"><g transform="translate(143.505361, 279.40545)"><g><path d="M 0.890625 0 L 0.890625 -10.640625 L 2.453125 -10.640625 L 2.453125 -1.453125 L 7.375 -1.453125 L 7.375 0 Z M 0.890625 0 "/></g></g></g><g fill="#004aad" fill-opacity="1"><g transform="translate(154.05047, 279.40545)"><g><path d="M 2.953125 -9.21875 L 0.078125 -9.21875 L 0.078125 -10.640625 L 7.40625 -10.640625 L 7.40625 -9.21875 L 4.515625 -9.21875 L 4.515625 0 L 2.953125 0 Z M 2.953125 -9.21875 "/></g></g></g><g fill="#004aad" fill-opacity="1"><g transform="translate(164.725827, 279.40545)"><g/></g></g><g fill="#004aad" fill-opacity="1"><g transform="translate(171.490941, 279.40545)"><g/></g></g><g fill="#004aad" fill-opacity="1"><g transform="translate(178.249263, 279.40545)"><g><path d="M 5.78125 -10.78125 C 6.5 -10.78125 7.175781 -10.632812 7.8125 -10.34375 C 8.457031 -10.0625 9.015625 -9.671875 9.484375 -9.171875 C 9.960938 -8.679688 10.34375 -8.101562 10.625 -7.4375 C 10.90625 -6.769531 11.046875 -6.066406 11.046875 -5.328125 C 11.046875 -4.578125 10.90625 -3.867188 10.625 -3.203125 C 10.34375 -2.546875 9.960938 -1.96875 9.484375 -1.46875 C 9.003906 -0.976562 8.441406 -0.585938 7.796875 -0.296875 C 7.160156 -0.00390625 6.484375 0.140625 5.765625 0.140625 C 5.046875 0.140625 4.363281 -0.00390625 3.71875 -0.296875 C 3.082031 -0.585938 2.523438 -0.976562 2.046875 -1.46875 C 1.566406 -1.96875 1.191406 -2.546875 0.921875 -3.203125 C 0.648438 -3.867188 0.515625 -4.578125 0.515625 -5.328125 C 0.515625 -6.066406 0.648438 -6.769531 0.921875 -7.4375 C 1.191406 -8.101562 1.566406 -8.679688 2.046875 -9.171875 C 2.535156 -9.671875 3.097656 -10.0625 3.734375 -10.34375 C 4.367188 -10.632812 5.050781 -10.78125 5.78125 -10.78125 Z M 5.78125 -1.34375 C 6.289062 -1.34375 6.765625 -1.445312 7.203125 -1.65625 C 7.648438 -1.863281 8.035156 -2.144531 8.359375 -2.5 C 8.691406 -2.863281 8.953125 -3.285156 9.140625 -3.765625 C 9.335938 -4.253906 9.4375 -4.773438 9.4375 -5.328125 C 9.4375 -5.878906 9.335938 -6.394531 9.140625 -6.875 C 8.953125 -7.351562 8.691406 -7.769531 8.359375 -8.125 C 8.035156 -8.488281 7.648438 -8.769531 7.203125 -8.96875 C 6.765625 -9.175781 6.289062 -9.28125 5.78125 -9.28125 C 5.269531 -9.28125 4.789062 -9.175781 4.34375 -8.96875 C 3.894531 -8.769531 3.503906 -8.488281 3.171875 -8.125 C 2.847656 -7.769531 2.585938 -7.351562 2.390625 -6.875 C 2.191406 -6.394531 2.09375 -5.878906 2.09375 -5.328125 C 2.09375 -4.773438 2.191406 -4.253906 2.390625 -3.765625 C 2.585938 -3.285156 2.847656 -2.863281 3.171875 -2.5 C 3.503906 -2.144531 3.894531 -1.863281 4.34375 -1.65625 C 4.789062 -1.445312 5.269531 -1.34375 5.78125 -1.34375 Z M 5.78125 -1.34375 "/></g></g></g><g fill="#004aad" fill-opacity="1"><g transform="translate(192.604362, 279.40545)"><g><path d="M 10 -10.640625 L 10 0 L 8.421875 0 L 2.46875 -8.15625 L 2.46875 0 L 0.84375 0 L 0.84375 -10.640625 L 2.484375 -10.640625 L 8.4375 -2.4375 L 8.4375 -10.640625 Z M 10 -10.640625 "/></g></g></g><g fill="#004aad" fill-opacity="1"><g transform="translate(206.327387, 279.40545)"><g/></g></g><g fill="#004aad" fill-opacity="1"><g transform="translate(213.092501, 279.40545)"><g/></g></g><g fill="#004aad" fill-opacity="1"><g transform="translate(219.850823, 279.40545)"><g><path d="M 2.953125 -9.21875 L 0.078125 -9.21875 L 0.078125 -10.640625 L 7.40625 -10.640625 L 7.40625 -9.21875 L 4.515625 -9.21875 L 4.515625 0 L 2.953125 0 Z M 2.953125 -9.21875 "/></g></g></g><g fill="#004aad" fill-opacity="1"><g transform="translate(230.530927, 279.40545)"><g><path d="M 9.609375 0 L 7.65625 0 L 4.3125 -4.59375 L 2.4375 -4.59375 L 2.4375 0 L 0.875 0 L 0.875 -10.640625 L 5.1875 -10.640625 C 5.601562 -10.640625 6 -10.554688 6.375 -10.390625 C 6.75 -10.234375 7.070312 -10.019531 7.34375 -9.75 C 7.625 -9.476562 7.84375 -9.160156 8 -8.796875 C 8.164062 -8.429688 8.25 -8.039062 8.25 -7.625 C 8.25 -7.269531 8.191406 -6.9375 8.078125 -6.625 C 7.972656 -6.320312 7.820312 -6.046875 7.625 -5.796875 C 7.425781 -5.546875 7.191406 -5.328125 6.921875 -5.140625 C 6.660156 -4.953125 6.367188 -4.8125 6.046875 -4.71875 Z M 5.1875 -6.0625 C 5.394531 -6.0625 5.59375 -6.101562 5.78125 -6.1875 C 5.976562 -6.269531 6.144531 -6.378906 6.28125 -6.515625 C 6.414062 -6.660156 6.519531 -6.828125 6.59375 -7.015625 C 6.675781 -7.210938 6.71875 -7.425781 6.71875 -7.65625 C 6.71875 -7.875 6.675781 -8.078125 6.59375 -8.265625 C 6.519531 -8.453125 6.414062 -8.617188 6.28125 -8.765625 C 6.144531 -8.910156 5.976562 -9.023438 5.78125 -9.109375 C 5.59375 -9.191406 5.394531 -9.234375 5.1875 -9.234375 L 2.4375 -9.234375 L 2.4375 -6.046875 Z M 5.1875 -6.0625 "/></g></g></g><g fill="#004aad" fill-opacity="1"><g transform="translate(243.221036, 279.40545)"><g><path d="M 8.65625 -3.765625 C 8.65625 -3.222656 8.550781 -2.710938 8.34375 -2.234375 C 8.144531 -1.765625 7.867188 -1.351562 7.515625 -1 C 7.160156 -0.644531 6.75 -0.363281 6.28125 -0.15625 C 5.8125 0.0507812 5.304688 0.15625 4.765625 0.15625 C 4.222656 0.15625 3.71875 0.0507812 3.25 -0.15625 C 2.78125 -0.363281 2.367188 -0.644531 2.015625 -1 C 1.671875 -1.351562 1.394531 -1.765625 1.1875 -2.234375 C 0.988281 -2.710938 0.890625 -3.222656 0.890625 -3.765625 L 0.890625 -10.640625 L 2.4375 -10.640625 L 2.4375 -3.765625 C 2.4375 -3.441406 2.5 -3.132812 2.625 -2.84375 C 2.75 -2.5625 2.914062 -2.304688 3.125 -2.078125 C 3.332031 -1.847656 3.578125 -1.664062 3.859375 -1.53125 C 4.148438 -1.40625 4.453125 -1.34375 4.765625 -1.34375 C 5.085938 -1.34375 5.390625 -1.40625 5.671875 -1.53125 C 5.953125 -1.664062 6.195312 -1.847656 6.40625 -2.078125 C 6.613281 -2.304688 6.773438 -2.5625 6.890625 -2.84375 C 7.015625 -3.132812 7.078125 -3.441406 7.078125 -3.765625 L 7.078125 -10.640625 L 8.65625 -10.640625 Z M 8.65625 -3.765625 "/></g></g></g><g fill="#004aad" fill-opacity="1"><g transform="translate(255.581144, 279.40545)"><g><path d="M 7.9375 -2.984375 C 7.9375 -2.535156 7.84375 -2.117188 7.65625 -1.734375 C 7.476562 -1.347656 7.21875 -1.007812 6.875 -0.71875 C 6.175781 -0.132812 5.289062 0.15625 4.21875 0.15625 C 3.375 0.15625 2.613281 -0.015625 1.9375 -0.359375 C 1.257812 -0.710938 0.757812 -1.175781 0.4375 -1.75 L 1.765625 -2.4375 C 1.960938 -2.082031 2.28125 -1.804688 2.71875 -1.609375 C 3.15625 -1.410156 3.65625 -1.3125 4.21875 -1.3125 C 5.664062 -1.3125 6.390625 -1.867188 6.390625 -2.984375 C 6.390625 -3.191406 6.351562 -3.367188 6.28125 -3.515625 C 6.207031 -3.671875 6.09375 -3.8125 5.9375 -3.9375 C 5.582031 -4.238281 4.9375 -4.507812 4 -4.75 C 3.445312 -4.894531 2.972656 -5.050781 2.578125 -5.21875 C 2.191406 -5.382812 1.867188 -5.582031 1.609375 -5.8125 C 0.972656 -6.320312 0.65625 -7 0.65625 -7.84375 C 0.65625 -8.257812 0.738281 -8.648438 0.90625 -9.015625 C 1.070312 -9.378906 1.304688 -9.695312 1.609375 -9.96875 C 1.910156 -10.238281 2.269531 -10.441406 2.6875 -10.578125 C 3.101562 -10.710938 3.5625 -10.78125 4.0625 -10.78125 C 4.789062 -10.78125 5.460938 -10.640625 6.078125 -10.359375 C 6.691406 -10.078125 7.160156 -9.6875 7.484375 -9.1875 L 6.265625 -8.4375 C 5.972656 -8.78125 5.632812 -9.023438 5.25 -9.171875 C 4.875 -9.316406 4.476562 -9.390625 4.0625 -9.390625 C 3.757812 -9.390625 3.484375 -9.335938 3.234375 -9.234375 C 2.984375 -9.140625 2.773438 -9.019531 2.609375 -8.875 C 2.472656 -8.757812 2.367188 -8.613281 2.296875 -8.4375 C 2.234375 -8.257812 2.203125 -8.070312 2.203125 -7.875 C 2.203125 -7.75 2.222656 -7.617188 2.265625 -7.484375 C 2.304688 -7.347656 2.398438 -7.207031 2.546875 -7.0625 C 2.703125 -6.914062 2.921875 -6.773438 3.203125 -6.640625 C 3.492188 -6.503906 3.890625 -6.367188 4.390625 -6.234375 C 4.992188 -6.085938 5.5 -5.925781 5.90625 -5.75 C 6.320312 -5.570312 6.664062 -5.363281 6.9375 -5.125 C 7.601562 -4.582031 7.9375 -3.867188 7.9375 -2.984375 Z M 7.9375 -2.984375 "/></g></g></g><g fill="#004aad" fill-opacity="1"><g transform="translate(267.13125, 279.40545)"><g><path d="M 2.953125 -9.21875 L 0.078125 -9.21875 L 0.078125 -10.640625 L 7.40625 -10.640625 L 7.40625 -9.21875 L 4.515625 -9.21875 L 4.515625 0 L 2.953125 0 Z M 2.953125 -9.21875 "/></g></g></g><g mask="url(#id58)"><g transform="matrix(1, 0, 0, 1, 104, 228)"><g clip-path="url(#id60)"><g clip-path="url(#id59)"><g fill="#0fb95a" fill-opacity="1"><g transform="translate(0.367185, 33.85551)"><g><path d="M 5.25 0 L 0.46875 0 L 12.859375 -29.78125 L 17.6875 -29.78125 L 30.078125 0 L 25.328125 0 L 21.421875 -9.328125 L 9.109375 -9.328125 Z M 10.796875 -13.359375 L 19.734375 -13.359375 L 15.28125 -24.109375 Z M 10.796875 -13.359375 "/></g></g></g></g><g fill="#1478f5" fill-opacity="1"><g transform="translate(31.093746, 33.85551)"><g><path d="M 22.21875 -8.359375 C 22.21875 -7.097656 21.960938 -5.925781 21.453125 -4.84375 C 20.953125 -3.769531 20.210938 -2.828125 19.234375 -2.015625 C 17.304688 -0.390625 14.828125 0.421875 11.796875 0.421875 C 9.453125 0.421875 7.328125 -0.0625 5.421875 -1.03125 C 3.515625 -2 2.113281 -3.289062 1.21875 -4.90625 L 4.953125 -6.84375 C 5.515625 -5.832031 6.40625 -5.054688 7.625 -4.515625 C 8.84375 -3.972656 10.234375 -3.703125 11.796875 -3.703125 C 15.859375 -3.703125 17.890625 -5.253906 17.890625 -8.359375 C 17.890625 -8.941406 17.785156 -9.441406 17.578125 -9.859375 C 17.367188 -10.285156 17.050781 -10.679688 16.625 -11.046875 C 15.625 -11.890625 13.820312 -12.644531 11.21875 -13.3125 C 9.644531 -13.707031 8.3125 -14.140625 7.21875 -14.609375 C 6.132812 -15.085938 5.226562 -15.648438 4.5 -16.296875 C 2.726562 -17.722656 1.84375 -19.613281 1.84375 -21.96875 C 1.84375 -23.144531 2.070312 -24.242188 2.53125 -25.265625 C 3 -26.285156 3.65625 -27.175781 4.5 -27.9375 C 5.363281 -28.6875 6.375 -29.25 7.53125 -29.625 C 8.695312 -30.007812 9.976562 -30.203125 11.375 -30.203125 C 13.425781 -30.203125 15.3125 -29.804688 17.03125 -29.015625 C 18.75 -28.234375 20.054688 -27.128906 20.953125 -25.703125 L 17.5625 -23.609375 C 16.75 -24.585938 15.804688 -25.28125 14.734375 -25.6875 C 13.671875 -26.09375 12.550781 -26.296875 11.375 -26.296875 C 10.539062 -26.296875 9.769531 -26.15625 9.0625 -25.875 C 8.363281 -25.59375 7.78125 -25.253906 7.3125 -24.859375 C 6.914062 -24.523438 6.625 -24.113281 6.4375 -23.625 C 6.257812 -23.132812 6.171875 -22.609375 6.171875 -22.046875 C 6.171875 -21.679688 6.226562 -21.3125 6.34375 -20.9375 C 6.457031 -20.5625 6.722656 -20.171875 7.140625 -19.765625 C 7.554688 -19.359375 8.171875 -18.960938 8.984375 -18.578125 C 9.796875 -18.203125 10.90625 -17.832031 12.3125 -17.46875 C 13.988281 -17.050781 15.398438 -16.597656 16.546875 -16.109375 C 17.691406 -15.617188 18.660156 -15.035156 19.453125 -14.359375 C 21.296875 -12.847656 22.21875 -10.847656 22.21875 -8.359375 Z M 22.21875 -8.359375 "/></g></g></g><g fill="#0fb95a" fill-opacity="1"><g transform="translate(55.445307, 33.85551)"><g><path d="M 5.25 0 L 0.46875 0 L 12.859375 -29.78125 L 17.6875 -29.78125 L 30.078125 0 L 25.328125 0 L 21.421875 -9.328125 L 9.109375 -9.328125 Z M 10.796875 -13.359375 L 19.734375 -13.359375 L 15.28125 -24.109375 Z M 10.796875 -13.359375 "/></g></g></g><g fill="#1478f5" fill-opacity="1"><g transform="translate(86.171867, 33.85551)"><g><path d="M 28.015625 -29.78125 L 28.015625 0 L 23.5625 0 L 6.9375 -22.84375 L 6.9375 0 L 2.359375 0 L 2.359375 -29.78125 L 6.96875 -29.78125 L 23.609375 -6.796875 L 23.609375 -29.78125 Z M 28.015625 -29.78125 "/></g></g></g><g fill="#0fb95a" fill-opacity="1"><g transform="translate(116.605459, 33.85551)"><g><path d="M 18.984375 -15.921875 L 27.09375 -15.921875 L 27.09375 -5 C 25.75 -3.40625 24.125 -2.101562 22.21875 -1.09375 C 20.3125 -0.0820312 18.238281 0.421875 16 0.421875 C 13.988281 0.421875 12.085938 0.015625 10.296875 -0.796875 C 8.503906 -1.609375 6.945312 -2.707031 5.625 -4.09375 C 4.3125 -5.476562 3.269531 -7.09375 2.5 -8.9375 C 1.726562 -10.789062 1.34375 -12.769531 1.34375 -14.875 C 1.34375 -16.9375 1.726562 -18.898438 2.5 -20.765625 C 3.269531 -22.628906 4.3125 -24.253906 5.625 -25.640625 C 6.945312 -27.023438 8.503906 -28.125 10.296875 -28.9375 C 12.085938 -29.75 13.988281 -30.15625 16 -30.15625 C 17.851562 -30.15625 19.601562 -29.789062 21.25 -29.0625 C 22.90625 -28.332031 24.390625 -27.378906 25.703125 -26.203125 L 23.09375 -22.890625 C 22.175781 -23.867188 21.109375 -24.660156 19.890625 -25.265625 C 18.671875 -25.867188 17.375 -26.171875 16 -26.171875 C 14.570312 -26.171875 13.234375 -25.867188 11.984375 -25.265625 C 10.742188 -24.660156 9.660156 -23.835938 8.734375 -22.796875 C 7.804688 -21.765625 7.078125 -20.566406 6.546875 -19.203125 C 6.015625 -17.847656 5.75 -16.40625 5.75 -14.875 C 5.75 -13.332031 6.015625 -11.878906 6.546875 -10.515625 C 7.078125 -9.160156 7.804688 -7.972656 8.734375 -6.953125 C 9.660156 -5.929688 10.742188 -5.125 11.984375 -4.53125 C 13.234375 -3.945312 14.570312 -3.65625 16 -3.65625 C 17.3125 -3.65625 18.539062 -3.910156 19.6875 -4.421875 C 20.84375 -4.941406 21.867188 -5.640625 22.765625 -6.515625 L 22.765625 -11.84375 L 18.984375 -11.84375 Z M 18.984375 -15.921875 "/></g></g></g><g fill="#1478f5" fill-opacity="1"><g transform="translate(146.406238, 33.85551)"><g><path d="M 5.25 0 L 0.46875 0 L 12.859375 -29.78125 L 17.6875 -29.78125 L 30.078125 0 L 25.328125 0 L 21.421875 -9.328125 L 9.109375 -9.328125 Z M 10.796875 -13.359375 L 19.734375 -13.359375 L 15.28125 -24.109375 Z M 10.796875 -13.359375 "/></g></g></g></g></g></g><g mask="url(#id61)"><g transform="matrix(1, 0, 0, 1, 110, 267)"><g clip-path="url(#id62)"><g fill="#0fb95a" fill-opacity="1"><g transform="translate(0.550049, 12.40545)"><g><path d="M 8.375 -2.96875 C 8.375 -2.5625 8.296875 -2.175781 8.140625 -1.8125 C 7.984375 -1.457031 7.769531 -1.144531 7.5 -0.875 C 7.226562 -0.601562 6.910156 -0.390625 6.546875 -0.234375 C 6.179688 -0.078125 5.796875 0 5.390625 0 L 0.84375 0 L 0.84375 -10.640625 L 5 -10.640625 C 5.351562 -10.640625 5.691406 -10.566406 6.015625 -10.421875 C 6.335938 -10.285156 6.617188 -10.097656 6.859375 -9.859375 C 7.097656 -9.617188 7.285156 -9.332031 7.421875 -9 C 7.566406 -8.675781 7.640625 -8.332031 7.640625 -7.96875 C 7.640625 -7.507812 7.5625 -7.09375 7.40625 -6.71875 C 7.257812 -6.34375 7.015625 -6.023438 6.671875 -5.765625 C 7.242188 -5.546875 7.671875 -5.1875 7.953125 -4.6875 C 8.234375 -4.1875 8.375 -3.613281 8.375 -2.96875 Z M 2.40625 -6.328125 C 2.800781 -6.316406 3.171875 -6.3125 3.515625 -6.3125 L 5.015625 -6.3125 C 5.390625 -6.3125 5.707031 -6.453125 5.96875 -6.734375 C 6.226562 -7.023438 6.359375 -7.367188 6.359375 -7.765625 C 6.359375 -8.179688 6.226562 -8.523438 5.96875 -8.796875 C 5.707031 -9.078125 5.390625 -9.21875 5.015625 -9.21875 L 2.40625 -9.21875 Z M 2.40625 -1.453125 C 2.46875 -1.441406 2.617188 -1.4375 2.859375 -1.4375 L 5.390625 -1.4375 C 5.597656 -1.4375 5.789062 -1.476562 5.96875 -1.5625 C 6.15625 -1.65625 6.316406 -1.78125 6.453125 -1.9375 C 6.597656 -2.09375 6.710938 -2.273438 6.796875 -2.484375 C 6.878906 -2.703125 6.921875 -2.929688 6.921875 -3.171875 C 6.921875 -3.410156 6.878906 -3.628906 6.796875 -3.828125 C 6.710938 -4.035156 6.597656 -4.21875 6.453125 -4.375 C 6.316406 -4.53125 6.15625 -4.648438 5.96875 -4.734375 C 5.789062 -4.828125 5.597656 -4.875 5.390625 -4.875 L 2.40625 -4.875 Z M 2.40625 -1.453125 "/></g></g></g><g fill="#0fb95a" fill-opacity="1"><g transform="translate(12.40015, 12.40545)"><g><path d="M 8.65625 -3.765625 C 8.65625 -3.222656 8.550781 -2.710938 8.34375 -2.234375 C 8.144531 -1.765625 7.867188 -1.351562 7.515625 -1 C 7.160156 -0.644531 6.75 -0.363281 6.28125 -0.15625 C 5.8125 0.0507812 5.304688 0.15625 4.765625 0.15625 C 4.222656 0.15625 3.71875 0.0507812 3.25 -0.15625 C 2.78125 -0.363281 2.367188 -0.644531 2.015625 -1 C 1.671875 -1.351562 1.394531 -1.765625 1.1875 -2.234375 C 0.988281 -2.710938 0.890625 -3.222656 0.890625 -3.765625 L 0.890625 -10.640625 L 2.4375 -10.640625 L 2.4375 -3.765625 C 2.4375 -3.441406 2.5 -3.132812 2.625 -2.84375 C 2.75 -2.5625 2.914062 -2.304688 3.125 -2.078125 C 3.332031 -1.847656 3.578125 -1.664062 3.859375 -1.53125 C 4.148438 -1.40625 4.453125 -1.34375 4.765625 -1.34375 C 5.085938 -1.34375 5.390625 -1.40625 5.671875 -1.53125 C 5.953125 -1.664062 6.195312 -1.847656 6.40625 -2.078125 C 6.613281 -2.304688 6.773438 -2.5625 6.890625 -2.84375 C 7.015625 -3.132812 7.078125 -3.441406 7.078125 -3.765625 L 7.078125 -10.640625 L 8.65625 -10.640625 Z M 8.65625 -3.765625 "/></g></g></g><g fill="#0fb95a" fill-opacity="1"><g transform="translate(24.760258, 12.40545)"><g><path d="M 3.71875 -9.34375 L 3.71875 -1.296875 L 4.5 -1.296875 L 4.5 0 L 1.359375 0 L 1.359375 -1.296875 L 2.15625 -1.296875 L 2.15625 -9.34375 L 1.359375 -9.34375 L 1.359375 -10.640625 L 4.5 -10.640625 L 4.5 -9.34375 Z M 3.71875 -9.34375 "/></g></g></g><g fill="#0fb95a" fill-opacity="1"><g transform="translate(33.50536, 12.40545)"><g><path d="M 0.890625 0 L 0.890625 -10.640625 L 2.453125 -10.640625 L 2.453125 -1.453125 L 7.375 -1.453125 L 7.375 0 Z M 0.890625 0 "/></g></g></g><g fill="#0fb95a" fill-opacity="1"><g transform="translate(44.050469, 12.40545)"><g><path d="M 2.953125 -9.21875 L 0.078125 -9.21875 L 0.078125 -10.640625 L 7.40625 -10.640625 L 7.40625 -9.21875 L 4.515625 -9.21875 L 4.515625 0 L 2.953125 0 Z M 2.953125 -9.21875 "/></g></g></g><g fill="#0fb95a" fill-opacity="1"><g transform="translate(54.725826, 12.40545)"><g/></g></g><g fill="#0fb95a" fill-opacity="1"><g transform="translate(61.490941, 12.40545)"><g/></g></g><g fill="#0fb95a" fill-opacity="1"><g transform="translate(68.249263, 12.40545)"><g><path d="M 5.78125 -10.78125 C 6.5 -10.78125 7.175781 -10.632812 7.8125 -10.34375 C 8.457031 -10.0625 9.015625 -9.671875 9.484375 -9.171875 C 9.960938 -8.679688 10.34375 -8.101562 10.625 -7.4375 C 10.90625 -6.769531 11.046875 -6.066406 11.046875 -5.328125 C 11.046875 -4.578125 10.90625 -3.867188 10.625 -3.203125 C 10.34375 -2.546875 9.960938 -1.96875 9.484375 -1.46875 C 9.003906 -0.976562 8.441406 -0.585938 7.796875 -0.296875 C 7.160156 -0.00390625 6.484375 0.140625 5.765625 0.140625 C 5.046875 0.140625 4.363281 -0.00390625 3.71875 -0.296875 C 3.082031 -0.585938 2.523438 -0.976562 2.046875 -1.46875 C 1.566406 -1.96875 1.191406 -2.546875 0.921875 -3.203125 C 0.648438 -3.867188 0.515625 -4.578125 0.515625 -5.328125 C 0.515625 -6.066406 0.648438 -6.769531 0.921875 -7.4375 C 1.191406 -8.101562 1.566406 -8.679688 2.046875 -9.171875 C 2.535156 -9.671875 3.097656 -10.0625 3.734375 -10.34375 C 4.367188 -10.632812 5.050781 -10.78125 5.78125 -10.78125 Z M 5.78125 -1.34375 C 6.289062 -1.34375 6.765625 -1.445312 7.203125 -1.65625 C 7.648438 -1.863281 8.035156 -2.144531 8.359375 -2.5 C 8.691406 -2.863281 8.953125 -3.285156 9.140625 -3.765625 C 9.335938 -4.253906 9.4375 -4.773438 9.4375 -5.328125 C 9.4375 -5.878906 9.335938 -6.394531 9.140625 -6.875 C 8.953125 -7.351562 8.691406 -7.769531 8.359375 -8.125 C 8.035156 -8.488281 7.648438 -8.769531 7.203125 -8.96875 C 6.765625 -9.175781 6.289062 -9.28125 5.78125 -9.28125 C 5.269531 -9.28125 4.789062 -9.175781 4.34375 -8.96875 C 3.894531 -8.769531 3.503906 -8.488281 3.171875 -8.125 C 2.847656 -7.769531 2.585938 -7.351562 2.390625 -6.875 C 2.191406 -6.394531 2.09375 -5.878906 2.09375 -5.328125 C 2.09375 -4.773438 2.191406 -4.253906 2.390625 -3.765625 C 2.585938 -3.285156 2.847656 -2.863281 3.171875 -2.5 C 3.503906 -2.144531 3.894531 -1.863281 4.34375 -1.65625 C 4.789062 -1.445312 5.269531 -1.34375 5.78125 -1.34375 Z M 5.78125 -1.34375 "/></g></g></g><g fill="#0fb95a" fill-opacity="1"><g transform="translate(82.604362, 12.40545)"><g><path d="M 10 -10.640625 L 10 0 L 8.421875 0 L 2.46875 -8.15625 L 2.46875 0 L 0.84375 0 L 0.84375 -10.640625 L 2.484375 -10.640625 L 8.4375 -2.4375 L 8.4375 -10.640625 Z M 10 -10.640625 "/></g></g></g><g fill="#0fb95a" fill-opacity="1"><g transform="translate(96.327386, 12.40545)"><g/></g></g><g fill="#0fb95a" fill-opacity="1"><g transform="translate(103.0925, 12.40545)"><g/></g></g><g fill="#0fb95a" fill-opacity="1"><g transform="translate(109.850823, 12.40545)"><g><path d="M 2.953125 -9.21875 L 0.078125 -9.21875 L 0.078125 -10.640625 L 7.40625 -10.640625 L 7.40625 -9.21875 L 4.515625 -9.21875 L 4.515625 0 L 2.953125 0 Z M 2.953125 -9.21875 "/></g></g></g><g fill="#0fb95a" fill-opacity="1"><g transform="translate(120.530926, 12.40545)"><g><path d="M 9.609375 0 L 7.65625 0 L 4.3125 -4.59375 L 2.4375 -4.59375 L 2.4375 0 L 0.875 0 L 0.875 -10.640625 L 5.1875 -10.640625 C 5.601562 -10.640625 6 -10.554688 6.375 -10.390625 C 6.75 -10.234375 7.070312 -10.019531 7.34375 -9.75 C 7.625 -9.476562 7.84375 -9.160156 8 -8.796875 C 8.164062 -8.429688 8.25 -8.039062 8.25 -7.625 C 8.25 -7.269531 8.191406 -6.9375 8.078125 -6.625 C 7.972656 -6.320312 7.820312 -6.046875 7.625 -5.796875 C 7.425781 -5.546875 7.191406 -5.328125 6.921875 -5.140625 C 6.660156 -4.953125 6.367188 -4.8125 6.046875 -4.71875 Z M 5.1875 -6.0625 C 5.394531 -6.0625 5.59375 -6.101562 5.78125 -6.1875 C 5.976562 -6.269531 6.144531 -6.378906 6.28125 -6.515625 C 6.414062 -6.660156 6.519531 -6.828125 6.59375 -7.015625 C 6.675781 -7.210938 6.71875 -7.425781 6.71875 -7.65625 C 6.71875 -7.875 6.675781 -8.078125 6.59375 -8.265625 C 6.519531 -8.453125 6.414062 -8.617188 6.28125 -8.765625 C 6.144531 -8.910156 5.976562 -9.023438 5.78125 -9.109375 C 5.59375 -9.191406 5.394531 -9.234375 5.1875 -9.234375 L 2.4375 -9.234375 L 2.4375 -6.046875 Z M 5.1875 -6.0625 "/></g></g></g><g fill="#0fb95a" fill-opacity="1"><g transform="translate(133.221036, 12.40545)"><g><path d="M 8.65625 -3.765625 C 8.65625 -3.222656 8.550781 -2.710938 8.34375 -2.234375 C 8.144531 -1.765625 7.867188 -1.351562 7.515625 -1 C 7.160156 -0.644531 6.75 -0.363281 6.28125 -0.15625 C 5.8125 0.0507812 5.304688 0.15625 4.765625 0.15625 C 4.222656 0.15625 3.71875 0.0507812 3.25 -0.15625 C 2.78125 -0.363281 2.367188 -0.644531 2.015625 -1 C 1.671875 -1.351562 1.394531 -1.765625 1.1875 -2.234375 C 0.988281 -2.710938 0.890625 -3.222656 0.890625 -3.765625 L 0.890625 -10.640625 L 2.4375 -10.640625 L 2.4375 -3.765625 C 2.4375 -3.441406 2.5 -3.132812 2.625 -2.84375 C 2.75 -2.5625 2.914062 -2.304688 3.125 -2.078125 C 3.332031 -1.847656 3.578125 -1.664062 3.859375 -1.53125 C 4.148438 -1.40625 4.453125 -1.34375 4.765625 -1.34375 C 5.085938 -1.34375 5.390625 -1.40625 5.671875 -1.53125 C 5.953125 -1.664062 6.195312 -1.847656 6.40625 -2.078125 C 6.613281 -2.304688 6.773438 -2.5625 6.890625 -2.84375 C 7.015625 -3.132812 7.078125 -3.441406 7.078125 -3.765625 L 7.078125 -10.640625 L 8.65625 -10.640625 Z M 8.65625 -3.765625 "/></g></g></g><g fill="#0fb95a" fill-opacity="1"><g transform="translate(145.581143, 12.40545)"><g><path d="M 7.9375 -2.984375 C 7.9375 -2.535156 7.84375 -2.117188 7.65625 -1.734375 C 7.476562 -1.347656 7.21875 -1.007812 6.875 -0.71875 C 6.175781 -0.132812 5.289062 0.15625 4.21875 0.15625 C 3.375 0.15625 2.613281 -0.015625 1.9375 -0.359375 C 1.257812 -0.710938 0.757812 -1.175781 0.4375 -1.75 L 1.765625 -2.4375 C 1.960938 -2.082031 2.28125 -1.804688 2.71875 -1.609375 C 3.15625 -1.410156 3.65625 -1.3125 4.21875 -1.3125 C 5.664062 -1.3125 6.390625 -1.867188 6.390625 -2.984375 C 6.390625 -3.191406 6.351562 -3.367188 6.28125 -3.515625 C 6.207031 -3.671875 6.09375 -3.8125 5.9375 -3.9375 C 5.582031 -4.238281 4.9375 -4.507812 4 -4.75 C 3.445312 -4.894531 2.972656 -5.050781 2.578125 -5.21875 C 2.191406 -5.382812 1.867188 -5.582031 1.609375 -5.8125 C 0.972656 -6.320312 0.65625 -7 0.65625 -7.84375 C 0.65625 -8.257812 0.738281 -8.648438 0.90625 -9.015625 C 1.070312 -9.378906 1.304688 -9.695312 1.609375 -9.96875 C 1.910156 -10.238281 2.269531 -10.441406 2.6875 -10.578125 C 3.101562 -10.710938 3.5625 -10.78125 4.0625 -10.78125 C 4.789062 -10.78125 5.460938 -10.640625 6.078125 -10.359375 C 6.691406 -10.078125 7.160156 -9.6875 7.484375 -9.1875 L 6.265625 -8.4375 C 5.972656 -8.78125 5.632812 -9.023438 5.25 -9.171875 C 4.875 -9.316406 4.476562 -9.390625 4.0625 -9.390625 C 3.757812 -9.390625 3.484375 -9.335938 3.234375 -9.234375 C 2.984375 -9.140625 2.773438 -9.019531 2.609375 -8.875 C 2.472656 -8.757812 2.367188 -8.613281 2.296875 -8.4375 C 2.234375 -8.257812 2.203125 -8.070312 2.203125 -7.875 C 2.203125 -7.75 2.222656 -7.617188 2.265625 -7.484375 C 2.304688 -7.347656 2.398438 -7.207031 2.546875 -7.0625 C 2.703125 -6.914062 2.921875 -6.773438 3.203125 -6.640625 C 3.492188 -6.503906 3.890625 -6.367188 4.390625 -6.234375 C 4.992188 -6.085938 5.5 -5.925781 5.90625 -5.75 C 6.320312 -5.570312 6.664062 -5.363281 6.9375 -5.125 C 7.601562 -4.582031 7.9375 -3.867188 7.9375 -2.984375 Z M 7.9375 -2.984375 "/></g></g></g><g fill="#0fb95a" fill-opacity="1"><g transform="translate(157.131249, 12.40545)"><g><path d="M 2.953125 -9.21875 L 0.078125 -9.21875 L 0.078125 -10.640625 L 7.40625 -10.640625 L 7.40625 -9.21875 L 4.515625 -9.21875 L 4.515625 0 L 2.953125 0 Z M 2.953125 -9.21875 "/></g></g></g></g></g></g></svg>